<svg width="21" height="14" viewBox="0 0 21 14" fill="none" xmlns="http://www.w3.org/2000/svg">
<g id="Group">
<path id="Vector" d="M11.4416 3.12519L0.865801 3.12519C0.380952 3.12519 0 3.50614 0 3.99099C0 4.47584 0.380952 4.85679 0.865801 4.85679L11.4416 4.85679C11.8225 6.13818 13 7.07324 14.4199 7.07324C15.8052 7.07324 17.0173 6.13818 17.3636 4.85679L20.1342 4.85679C20.619 4.85679 21 4.47584 21 3.99099C21 3.50614 20.619 3.12519 20.1342 3.12519L17.3636 3.12519C16.9827 1.8438 15.8052 0.908738 14.4199 0.908738C13 0.908738 11.8225 1.8438 11.4416 3.12519ZM15.7706 3.99099C15.7706 4.75289 15.1472 5.34164 14.4199 5.34164C13.658 5.34164 13.0693 4.71826 13.0693 3.99099C13.0693 3.26372 13.6926 2.64034 14.4199 2.64034C15.1472 2.64034 15.7706 3.22909 15.7706 3.99099Z" fill="#0D0D0D"/>
<path id="Vector_2" d="M4.05195 10.0519H0.865801C0.380952 10.0519 0 10.4329 0 10.9177C0 11.4026 0.380952 11.7835 0.865801 11.7835H4.05195C4.4329 13.0649 5.61039 14 7.0303 14C8.41558 14 9.62771 13.0649 9.97403 11.7835L20.1342 11.7835C20.619 11.7835 21 11.4026 21 10.9177C21 10.4329 20.619 10.0519 20.1342 10.0519L9.97403 10.0519C9.59307 8.77056 8.41558 7.8355 7.0303 7.8355C5.61039 7.8355 4.4329 8.77056 4.05195 10.0519ZM8.38095 10.9177C8.38095 11.6797 7.75758 12.2684 7.0303 12.2684C6.2684 12.2684 5.67965 11.645 5.67965 10.9177C5.67965 10.1905 6.30303 9.5671 7.0303 9.5671C7.75758 9.5671 8.38095 10.1558 8.38095 10.9177Z" fill="#0D0D0D"/>
</g>
</svg>
