<svg width="24" height="24" viewBox="0 0 24 24" fill="none" xmlns="http://www.w3.org/2000/svg">
<g id="Component 2">
<path id="Icon" d="M4 9L4 9.01M4 16L4 16.01M4 10C3.44772 10 3 9.55228 3 9C3 8.44772 3.44772 8 4 8C4.55228 8 5 8.44772 5 9C5 9.55228 4.55228 10 4 10ZM4 17C3.44771 17 3 16.5523 3 16C3 15.4477 3.44771 15 4 15C4.55228 15 5 15.4477 5 16C5 16.5523 4.55228 17 4 17Z" stroke="#0D0D0D" stroke-linecap="round" stroke-linejoin="round"/>
<path id="Icon_2" d="M9 9H20M9 16H20" stroke="#0D0D0D" stroke-width="2" stroke-linecap="round" stroke-linejoin="round"/>
</g>
</svg>
